<svg xmlns="http://www.w3.org/2000/svg" xmlns:xlink="http://www.w3.org/1999/xlink" width="135" height="135" viewBox="0 0 135 135">
  <defs>
    <filter id="Rectangle_88" x="0" y="0" width="135" height="135" filterUnits="userSpaceOnUse">
      <feOffset dy="15" input="SourceAlpha"/>
      <feGaussianBlur stdDeviation="12.5" result="blur"/>
      <feFlood flood-color="#18a75d" flood-opacity="0.251"/>
      <feComposite operator="in" in2="blur"/>
      <feComposite in="SourceGraphic"/>
    </filter>
  </defs>
  <g id="Component_39" data-name="Component 39" transform="translate(37.5 22.5)">
    <g transform="matrix(1, 0, 0, 1, -37.5, -22.5)" filter="url(#Rectangle_88)">
      <rect id="Rectangle_88-2" data-name="Rectangle 88" width="60" height="60" rx="30" transform="translate(37.5 22.5)" fill="#00a85a"/>
    </g>
    <g id="Group_1061" data-name="Group 1061" transform="translate(-1.5 1.778)">
      <g id="Task" transform="translate(18.528 13.75)">
        <rect id="Rectangle_213" data-name="Rectangle 213" width="31" height="31" fill="none"/>
        <path id="notestasksalt" d="M21.875,25H3.125a3.012,3.012,0,0,1-2.21-.915A3.007,3.007,0,0,1,0,21.875V6.25A3.012,3.012,0,0,1,.915,4.04a3.007,3.007,0,0,1,2.21-.915H4.688V1.562A1.512,1.512,0,0,1,5.139.451,1.507,1.507,0,0,1,6.25,0,1.542,1.542,0,0,1,7.813,1.562V3.125h3.125V1.562A1.512,1.512,0,0,1,11.389.451a1.593,1.593,0,0,1,2.222,0,1.509,1.509,0,0,1,.451,1.111V3.125h3.125V1.562A1.512,1.512,0,0,1,17.639.451a1.593,1.593,0,0,1,2.222,0,1.509,1.509,0,0,1,.451,1.111V3.125h1.563a3.012,3.012,0,0,1,2.21.915A3.007,3.007,0,0,1,25,6.25V21.875A3.125,3.125,0,0,1,21.875,25ZM19.861,9.8a1.469,1.469,0,0,0-1.074-.451,1.531,1.531,0,0,0-1.087.44l-6.762,6.787L7.276,12.915a1.529,1.529,0,0,0-1.086-.44A1.541,1.541,0,0,0,4.664,14a1.412,1.412,0,0,0,.464,1.062L9.6,19.531q.147.269.2.342a1.52,1.52,0,0,0,1.147.415,1.488,1.488,0,0,0,1.123-.415q.049-.073.2-.342l7.617-7.593a1.447,1.447,0,0,0,.44-1.062A1.469,1.469,0,0,0,19.862,9.8Z" transform="translate(3 3)" fill="#fff"/>
      </g>
      <g id="Group_272" data-name="Group 272" transform="translate(19.972 16.722)">
        <g id="Union_3" data-name="Union 3" transform="translate(-6.5 -5.5)" fill="#fff" strokeLinecap="round" strokeLinejoin="round">
          <path d="M 9.013916015625 19.27783584594727 C 7.524375915527344 19.27783584594727 6.312546253204346 18.06600570678711 6.312546253204346 16.57646560668945 L 6.312546253204346 11.7147855758667 L 1.451366066932678 11.7147855758667 C -0.03817398473620415 11.7147855758667 -1.250003933906555 10.50317573547363 -1.250003933906555 9.013916015625 C -1.250003933906555 7.524375915527344 -0.03817398473620415 6.312546253204346 1.451366066932678 6.312546253204346 L 6.312546253204346 6.312546253204346 L 6.312546253204346 1.451416015625 C 6.312546253204346 -0.03815398365259171 7.524375915527344 -1.250003933906555 9.013916015625 -1.250003933906555 C 10.50345611572266 -1.250003933906555 11.71528625488281 -0.03815398365259171 11.71528625488281 1.451416015625 L 11.71528625488281 6.312546253204346 L 16.57646560668945 6.312546253204346 C 18.06600570678711 6.312546253204346 19.27783584594727 7.524375915527344 19.27783584594727 9.013916015625 C 19.27783584594727 10.50317573547363 18.06600570678711 11.7147855758667 16.57646560668945 11.7147855758667 L 11.71528625488281 11.7147855758667 L 11.71528625488281 16.57646560668945 C 11.71528625488281 18.06600570678711 10.50345611572266 19.27783584594727 9.013916015625 19.27783584594727 Z" stroke="none"/>
          <path d="M 9.013916015625 18.02783584594727 C 9.815325736999512 18.02783584594727 10.46528625488281 17.37792587280273 10.46528625488281 16.57646560668945 L 10.46528625488281 10.4647855758667 L 16.57646560668945 10.4647855758667 C 17.37787628173828 10.4647855758667 18.02783584594727 9.815376281738281 18.02783584594727 9.013916015625 C 18.02783584594727 8.211956024169922 17.37787628173828 7.562546253204346 16.57646560668945 7.562546253204346 L 10.46528625488281 7.562546253204346 L 10.46528625488281 1.451416015625 C 10.46528625488281 0.6494060158729553 9.815325736999512 -3.984374870924512e-06 9.013916015625 -3.984374870924512e-06 C 8.212406158447266 -3.984374870924512e-06 7.562546253204346 0.6494060158729553 7.562546253204346 1.451416015625 L 7.562546253204346 7.562546253204346 L 1.451366066932678 7.562546253204346 C 0.6494560241699219 7.562546253204346 -3.984374870924512e-06 8.211956024169922 -3.984374870924512e-06 9.013916015625 C -3.984374870924512e-06 9.815376281738281 0.6494560241699219 10.4647855758667 1.451366066932678 10.4647855758667 L 7.562546253204346 10.4647855758667 L 7.562546253204346 16.57646560668945 C 7.562546253204346 17.37792587280273 8.212406158447266 18.02783584594727 9.013916015625 18.02783584594727 M 9.013916015625 20.52783584594727 C 6.835125923156738 20.52783584594727 5.062546253204346 18.75525665283203 5.062546253204346 16.57646560668945 L 5.062546253204346 12.9647855758667 L 1.451366066932678 12.9647855758667 C -0.7274239659309387 12.9647855758667 -2.500004053115845 11.19243621826172 -2.500004053115845 9.013916015625 C -2.500004053115845 6.835125923156738 -0.7274239659309387 5.062546253204346 1.451366066932678 5.062546253204346 L 5.062546253204346 5.062546253204346 L 5.062546253204346 1.451416015625 C 5.062546253204346 -0.727403998374939 6.835125923156738 -2.500004053115845 9.013916015625 -2.500004053115845 C 11.19270610809326 -2.500004053115845 12.96528625488281 -0.727403998374939 12.96528625488281 1.451416015625 L 12.96528625488281 5.062546253204346 L 16.57646560668945 5.062546253204346 C 18.75525665283203 5.062546253204346 20.52783584594727 6.835125923156738 20.52783584594727 9.013916015625 C 20.52783584594727 11.19243621826172 18.75525665283203 12.9647855758667 16.57646560668945 12.9647855758667 L 12.96528625488281 12.9647855758667 L 12.96528625488281 16.57646560668945 C 12.96528625488281 18.75525665283203 11.19270610809326 20.52783584594727 9.013916015625 20.52783584594727 Z" stroke="none" fill="#00a85a"/>
        </g>
      </g>
    </g>
  </g>
</svg>
