<svg xmlns="http://www.w3.org/2000/svg" width="30" height="30" viewBox="0 0 30 30">
  <g id="Group_817" data-name="Group 817" transform="translate(-430 -539)">
    <g id="Group_1030" data-name="Group 1030" transform="translate(-1415 270)">
      <rect id="Rectangle_364" data-name="Rectangle 364" width="30" height="30" transform="translate(1845 269)" fill="none"/>
      <g id="more-vertical-alt" transform="translate(1842 266)">
        <path id="Path_20" data-name="Path 20" d="M21,9a3,3,0,1,1-3-3,3,3,0,0,1,3,3Z" fill="#648b7a"/>
        <path id="Path_21" data-name="Path 21" d="M21,18a3,3,0,1,1-3-3A3,3,0,0,1,21,18Z" fill="#648b7a"/>
        <path id="Path_22" data-name="Path 22" d="M21,27a3,3,0,1,1-3-3A3,3,0,0,1,21,27Z" fill="#648b7a"/>
      </g>
    </g>
  </g>
</svg>
