<svg xmlns="http://www.w3.org/2000/svg" width="131" height="30" viewBox="0 0 131 30">
  <g id="Group_1088" data-name="Group 1088" transform="translate(0 -538)">
    <g id="Group_807" data-name="Group 807" transform="translate(-551 537)">
      <rect id="Rectangle_229" data-name="Rectangle 229" width="131" height="30" rx="5" transform="translate(551 1)" fill="#f46e56" opacity="0.2"/>
      <text id="REMINDER" transform="translate(586 22)" fill="#f46e56" stroke="rgba(0,0,0,0)" strokeWidth="1" font-size="16" font-family="Raleway-Bold, Raleway" font-weight="700" letter-spacing="0.03em"><tspan x="0" y="0">REMINDER</tspan></text>
      <g id="Reminders" transform="translate(561 6)">
        <rect id="Rectangle_371" data-name="Rectangle 371" width="20" height="20" fill="none"/>
        <g id="Group_1062" data-name="Group 1062" transform="translate(1.145 1.145)">
          <path id="Subtraction_2" data-name="Subtraction 2" d="M15.75,18H2.25a2.18,2.18,0,0,1-1.591-.659A2.175,2.175,0,0,1,0,15.75V4.5A2.177,2.177,0,0,1,.659,2.909,2.175,2.175,0,0,1,2.25,2.25H3.375V1.125A1.092,1.092,0,0,1,3.7.325a1.147,1.147,0,0,1,1.6,0,1.09,1.09,0,0,1,.325.8V2.25h2.25V1.125A1.092,1.092,0,0,1,8.2.325a1.147,1.147,0,0,1,1.6,0,1.09,1.09,0,0,1,.325.8V2.25h2.25V1.125a1.092,1.092,0,0,1,.325-.8,1.146,1.146,0,0,1,1.6,0,1.09,1.09,0,0,1,.325.8V2.25H15.75A2.252,2.252,0,0,1,18,4.5V15.75A2.252,2.252,0,0,1,15.75,18ZM7.967,14.564a1.386,1.386,0,1,0,2.772,0ZM9.353,5.377A.637.637,0,0,0,8.66,6,3.423,3.423,0,0,0,5.888,9.364a4.06,4.06,0,0,1-1.12,3.256l-.082.086a.672.672,0,0,0-.186.47.69.69,0,0,0,.7.693h8.315a.69.69,0,0,0,.7-.693.678.678,0,0,0-.186-.47l-.08-.085a4.058,4.058,0,0,1-1.122-3.258A3.423,3.423,0,0,0,10.046,6a.581.581,0,0,0-.167-.426A.743.743,0,0,0,9.353,5.377Z" transform="translate(-0.145 -0.145)" fill="#f46e56"/>
        </g>
      </g>
    </g>
  </g>
</svg>
