<svg id="Reminders" xmlns="http://www.w3.org/2000/svg" width="30" height="30" viewBox="0 0 30 30">
  <rect id="Rectangle_371" data-name="Rectangle 371" width="30" height="30" fill="none"/>
  <g id="Group_1062" data-name="Group 1062" transform="translate(3 3)">
    <path id="Subtraction_2" data-name="Subtraction 2" d="M21,24H3a2.906,2.906,0,0,1-2.121-.879A2.9,2.9,0,0,1,0,21V6A2.9,2.9,0,0,1,.878,3.879,2.9,2.9,0,0,1,3,3H4.5V1.5A1.456,1.456,0,0,1,4.933.434a1.529,1.529,0,0,1,2.134,0A1.453,1.453,0,0,1,7.5,1.5V3h3V1.5A1.456,1.456,0,0,1,10.933.434a1.529,1.529,0,0,1,2.134,0A1.453,1.453,0,0,1,13.5,1.5V3h3V1.5A1.456,1.456,0,0,1,16.934.434a1.528,1.528,0,0,1,2.133,0A1.453,1.453,0,0,1,19.5,1.5V3H21a3,3,0,0,1,3,3V21a3,3,0,0,1-3,3ZM10.623,19.418a1.848,1.848,0,1,0,3.7,0ZM12.471,7.169A.849.849,0,0,0,11.547,8a4.564,4.564,0,0,0-3.7,4.482c0,2.772-.935,3.755-1.493,4.342l-.109.115A.9.9,0,0,0,6,17.57a.92.92,0,0,0,.927.924H18.014a.92.92,0,0,0,.927-.924.9.9,0,0,0-.248-.627l-.107-.113c-.56-.588-1.5-1.57-1.5-4.344A4.564,4.564,0,0,0,13.395,8a.774.774,0,0,0-.222-.568A.991.991,0,0,0,12.471,7.169Z" transform="translate(0 0)" fill="#00a85a"/>
  </g>
</svg>
