<svg xmlns="http://www.w3.org/2000/svg" xmlns:xlink="http://www.w3.org/1999/xlink" width="135" height="135" viewBox="0 0 135 135">
  <defs>
    <filter id="Ellipse_2" x="0" y="0" width="135" height="135" filterUnits="userSpaceOnUse">
      <feOffset dy="15" input="SourceAlpha"/>
      <feGaussianBlur stdDeviation="12.5" result="blur"/>
      <feFlood flood-color="#18a75d" flood-opacity="0.149"/>
      <feComposite operator="in" in2="blur"/>
      <feComposite in="SourceGraphic"/>
    </filter>
  </defs>
  <g id="Component_47_4" data-name="Component 47 – 4" transform="translate(37.5 22.5)">
    <g transform="matrix(1, 0, 0, 1, -37.5, -22.5)" filter="url(#Ellipse_2)">
      <circle id="Ellipse_2-2" data-name="Ellipse 2" cx="30" cy="30" r="30" transform="translate(37.5 22.5)" fill="#00a85a"/>
    </g>
    <g id="Group_889" data-name="Group 889" transform="translate(16 14)">
      <g id="notifications">
        <path id="Path_15" data-name="Path 15" d="M31.78,23.572l-.355-.409c-1.6-1.834-2.562-2.941-2.562-8.134a10.167,10.167,0,0,0-2.011-6.549,9.439,9.439,0,0,0-4.066-2.834.216.216,0,0,1-.06-.046,4.587,4.587,0,0,0-4.3-3.349,4.588,4.588,0,0,0-4.3,3.347.225.225,0,0,1-.059.045c-4.089,1.6-6.077,4.67-6.077,9.384,0,5.2-.964,6.3-2.562,8.134-.117.133-.234.269-.355.409a2.328,2.328,0,0,0-.337,2.593,2.729,2.729,0,0,0,2.49,1.452H29.634a2.724,2.724,0,0,0,2.48-1.448,2.328,2.328,0,0,0-.334-2.6Z" transform="translate(-4.488 -2.25)" fill="#eff7f0"/>
        <path id="Path_16" data-name="Path 16" d="M19.332,34.652A7.133,7.133,0,0,0,25.609,30.9a.356.356,0,0,0-.316-.523H13.373a.356.356,0,0,0-.317.523A7.133,7.133,0,0,0,19.332,34.652Z" transform="translate(-5.393 -2.155)" fill="#eff7f0"/>
      </g>
    </g>
    <g id="Group_272" data-name="Group 272" transform="translate(21.5 17.965)">
      <g id="Union_3" data-name="Union 3" transform="translate(-6.5 -5.5)" fill="#eff7f0" strokeLinecap="round" strokeLinejoin="round">
        <path d="M 9.013916015625 19.27783584594727 C 7.524375915527344 19.27783584594727 6.312546253204346 18.06600570678711 6.312546253204346 16.57646560668945 L 6.312546253204346 11.7147855758667 L 1.451366066932678 11.7147855758667 C -0.03817398473620415 11.7147855758667 -1.250003933906555 10.50317573547363 -1.250003933906555 9.013916015625 C -1.250003933906555 7.524375915527344 -0.03817398473620415 6.312546253204346 1.451366066932678 6.312546253204346 L 6.312546253204346 6.312546253204346 L 6.312546253204346 1.451416015625 C 6.312546253204346 -0.03815398365259171 7.524375915527344 -1.250003933906555 9.013916015625 -1.250003933906555 C 10.50345611572266 -1.250003933906555 11.71528625488281 -0.03815398365259171 11.71528625488281 1.451416015625 L 11.71528625488281 6.312546253204346 L 16.57646560668945 6.312546253204346 C 18.06600570678711 6.312546253204346 19.27783584594727 7.524375915527344 19.27783584594727 9.013916015625 C 19.27783584594727 10.50317573547363 18.06600570678711 11.7147855758667 16.57646560668945 11.7147855758667 L 11.71528625488281 11.7147855758667 L 11.71528625488281 16.57646560668945 C 11.71528625488281 18.06600570678711 10.50345611572266 19.27783584594727 9.013916015625 19.27783584594727 Z" stroke="none"/>
        <path d="M 9.013916015625 18.02783584594727 C 9.815325736999512 18.02783584594727 10.46528625488281 17.37792587280273 10.46528625488281 16.57646560668945 L 10.46528625488281 10.4647855758667 L 16.57646560668945 10.4647855758667 C 17.37787628173828 10.4647855758667 18.02783584594727 9.815376281738281 18.02783584594727 9.013916015625 C 18.02783584594727 8.211956024169922 17.37787628173828 7.562546253204346 16.57646560668945 7.562546253204346 L 10.46528625488281 7.562546253204346 L 10.46528625488281 1.451416015625 C 10.46528625488281 0.6494060158729553 9.815325736999512 -3.984374870924512e-06 9.013916015625 -3.984374870924512e-06 C 8.212406158447266 -3.984374870924512e-06 7.562546253204346 0.6494060158729553 7.562546253204346 1.451416015625 L 7.562546253204346 7.562546253204346 L 1.451366066932678 7.562546253204346 C 0.6494560241699219 7.562546253204346 -3.984374870924512e-06 8.211956024169922 -3.984374870924512e-06 9.013916015625 C -3.984374870924512e-06 9.815376281738281 0.6494560241699219 10.4647855758667 1.451366066932678 10.4647855758667 L 7.562546253204346 10.4647855758667 L 7.562546253204346 16.57646560668945 C 7.562546253204346 17.37792587280273 8.212406158447266 18.02783584594727 9.013916015625 18.02783584594727 M 9.013916015625 20.52783584594727 C 6.835125923156738 20.52783584594727 5.062546253204346 18.75525665283203 5.062546253204346 16.57646560668945 L 5.062546253204346 12.9647855758667 L 1.451366066932678 12.9647855758667 C -0.7274239659309387 12.9647855758667 -2.500004053115845 11.19243621826172 -2.500004053115845 9.013916015625 C -2.500004053115845 6.835125923156738 -0.7274239659309387 5.062546253204346 1.451366066932678 5.062546253204346 L 5.062546253204346 5.062546253204346 L 5.062546253204346 1.451416015625 C 5.062546253204346 -0.727403998374939 6.835125923156738 -2.500004053115845 9.013916015625 -2.500004053115845 C 11.19270610809326 -2.500004053115845 12.96528625488281 -0.727403998374939 12.96528625488281 1.451416015625 L 12.96528625488281 5.062546253204346 L 16.57646560668945 5.062546253204346 C 18.75525665283203 5.062546253204346 20.52783584594727 6.835125923156738 20.52783584594727 9.013916015625 C 20.52783584594727 11.19243621826172 18.75525665283203 12.9647855758667 16.57646560668945 12.9647855758667 L 12.96528625488281 12.9647855758667 L 12.96528625488281 16.57646560668945 C 12.96528625488281 18.75525665283203 11.19270610809326 20.52783584594727 9.013916015625 20.52783584594727 Z" stroke="none" fill="#00a85a"/>
      </g>
    </g>
  </g>
</svg>
