<svg id="Reminders" xmlns="http://www.w3.org/2000/svg" width="30" height="30" viewBox="0 0 30 30">
  <rect id="Rectangle_371" data-name="Rectangle 371" width="30" height="30" fill="none"/>
  <g id="Group_1062" data-name="Group 1062" transform="translate(3 3)">
    <path id="Subtraction_2" data-name="Subtraction 2" d="M21,25H3a2.849,2.849,0,0,1-2.121-.916A3.085,3.085,0,0,1,0,21.874V6.25a3.088,3.088,0,0,1,.878-2.21A2.843,2.843,0,0,1,3,3.125H4.5V1.563A1.549,1.549,0,0,1,4.933.452a1.486,1.486,0,0,1,2.134,0A1.546,1.546,0,0,1,7.5,1.563V3.125h3V1.563A1.549,1.549,0,0,1,10.933.452a1.486,1.486,0,0,1,2.134,0A1.546,1.546,0,0,1,13.5,1.563V3.125h3V1.563A1.55,1.55,0,0,1,16.933.452a1.484,1.484,0,0,1,2.133,0A1.547,1.547,0,0,1,19.5,1.563V3.125H21a2.846,2.846,0,0,1,2.121.916A3.086,3.086,0,0,1,24,6.25V21.874a3.089,3.089,0,0,1-.879,2.21A2.84,2.84,0,0,1,21,25ZM10.623,20.227a1.849,1.849,0,1,0,3.7,0ZM12.471,7.468a.862.862,0,0,0-.924.869,4.709,4.709,0,0,0-3.7,4.669c0,2.887-.935,3.911-1.493,4.523l-.109.12A.954.954,0,0,0,6,18.3a.941.941,0,0,0,.927.963H18.014a.941.941,0,0,0,.927-.963.963.963,0,0,0-.248-.653l-.107-.118c-.56-.612-1.5-1.636-1.5-4.524a4.709,4.709,0,0,0-3.7-4.669.825.825,0,0,0-.222-.591A.969.969,0,0,0,12.471,7.468Z" transform="translate(0 0)" fill="#00a85a"/>
  </g>
</svg>
