<svg id="Reminders" xmlns="http://www.w3.org/2000/svg" width="30" height="30" viewBox="0 0 30 30">
  <rect id="Rectangle_371" data-name="Rectangle 371" width="30" height="30" fill="none"/>
  <g id="Group_1062" data-name="Group 1062" transform="translate(3 3)">
    <path id="Subtraction_2" data-name="Subtraction 2" d="M21,27H3a2.754,2.754,0,0,1-2.121-.988A3.482,3.482,0,0,1,0,23.625V6.75A3.485,3.485,0,0,1,.878,4.363,2.752,2.752,0,0,1,3,3.375H4.5V1.688a1.748,1.748,0,0,1,.433-1.2,1.411,1.411,0,0,1,2.134,0,1.745,1.745,0,0,1,.433,1.2V3.375h3V1.688a1.748,1.748,0,0,1,.433-1.2,1.411,1.411,0,0,1,2.134,0,1.745,1.745,0,0,1,.433,1.2V3.375h3V1.688a1.748,1.748,0,0,1,.434-1.2,1.41,1.41,0,0,1,2.133,0,1.745,1.745,0,0,1,.434,1.2V3.375H21a2.752,2.752,0,0,1,2.121.988A3.482,3.482,0,0,1,24,6.75V23.625a3.485,3.485,0,0,1-.879,2.387A2.743,2.743,0,0,1,21,27Zm-10.38-5.154a1.976,1.976,0,0,0,1.848,2.08,1.976,1.976,0,0,0,1.848-2.08Zm1.848-13.78A.892.892,0,0,0,11.547,9a5.019,5.019,0,0,0-3.7,5.042c0,3.119-.935,4.224-1.493,4.885l-.109.129A1.079,1.079,0,0,0,6,19.766a.986.986,0,0,0,.927,1.04H18.014a.986.986,0,0,0,.927-1.04,1.089,1.089,0,0,0-.248-.706l-.108-.128c-.56-.661-1.5-1.766-1.5-4.886A5.019,5.019,0,0,0,13.395,9a.93.93,0,0,0-.256-.674A.946.946,0,0,0,12.471,8.066Z" transform="translate(0 0)" fill="#87ac9b"/>
  </g>
</svg>
