<svg xmlns="http://www.w3.org/2000/svg" width="82" height="30" viewBox="0 0 82 30">
  <g id="Group_1085" data-name="Group 1085" transform="translate(-562 1)">
    <rect id="Rectangle_229" data-name="Rectangle 229" width="82" height="30" rx="5" transform="translate(562 -1)" fill="#4160e0" opacity="0.2"/>
    <text id="Task" transform="translate(636 20)" fill="#4160e0" stroke="rgba(0,0,0,0)" strokeWidth="1" font-size="16" font-family="Raleway-Bold, Raleway" font-weight="700" letter-spacing="0.03em"><tspan x="-41" y="0">TASK</tspan></text>
    <g id="Task-2" data-name="Task" transform="translate(570 4)">
      <rect id="Rectangle_213" data-name="Rectangle 213" width="20" height="20" fill="none"/>
      <path id="notestasksalt" d="M14.505,16.577H2.072A2,2,0,0,1,.607,15.97,1.994,1.994,0,0,1,0,14.505V4.144A2,2,0,0,1,.607,2.679a1.994,1.994,0,0,1,1.465-.607H3.108V1.036A1,1,0,0,1,3.408.3,1,1,0,0,1,4.144,0,1.022,1.022,0,0,1,5.18,1.036V2.072H7.253V1.036A1,1,0,0,1,7.552.3,1.056,1.056,0,0,1,9.025.3a1,1,0,0,1,.3.737V2.072H11.4V1.036A1,1,0,0,1,11.7.3,1.056,1.056,0,0,1,13.17.3a1,1,0,0,1,.3.737V2.072h1.036a2,2,0,0,1,1.465.607,1.994,1.994,0,0,1,.607,1.465V14.505a2.072,2.072,0,0,1-2.072,2.072ZM13.17,6.5a.974.974,0,0,0-.712-.3,1.015,1.015,0,0,0-.721.291l-4.484,4.5L4.824,8.564a1.014,1.014,0,0,0-.72-.291A1.022,1.022,0,0,0,3.093,9.284a.936.936,0,0,0,.308.7l2.963,2.963q.1.178.129.227a1.008,1.008,0,0,0,.761.275A.987.987,0,0,0,8,13.178q.032-.048.129-.227l5.051-5.035a.959.959,0,0,0,.291-.7.974.974,0,0,0-.3-.712Z" transform="translate(1.711 1.711)" fill="#4160e0"/>
    </g>
  </g>
</svg>
