<svg id="Task" xmlns="http://www.w3.org/2000/svg" width="30" height="30" viewBox="0 0 30 30">
  <rect id="Rectangle_213" data-name="Rectangle 213" width="30" height="30" fill="none"/>
  <path id="notestasksalt" d="M21,24H3a2.892,2.892,0,0,1-2.121-.879A2.887,2.887,0,0,1,0,21V6A2.892,2.892,0,0,1,.879,3.879,2.887,2.887,0,0,1,3,3H4.5V1.5A1.451,1.451,0,0,1,4.933.433,1.446,1.446,0,0,1,6,0,1.48,1.48,0,0,1,7.5,1.5V3h3V1.5A1.451,1.451,0,0,1,10.933.433a1.529,1.529,0,0,1,2.133,0A1.448,1.448,0,0,1,13.5,1.5V3h3V1.5A1.451,1.451,0,0,1,16.933.433a1.529,1.529,0,0,1,2.133,0A1.448,1.448,0,0,1,19.5,1.5V3H21a2.892,2.892,0,0,1,2.121.879A2.887,2.887,0,0,1,24,6V21a3,3,0,0,1-3,3ZM19.067,9.41a1.41,1.41,0,0,0-1.031-.433,1.47,1.47,0,0,0-1.043.422L10.5,15.914,6.985,12.4a1.467,1.467,0,0,0-1.043-.422,1.48,1.48,0,0,0-1.465,1.465,1.355,1.355,0,0,0,.445,1.019L9.212,18.75q.141.258.187.328a1.459,1.459,0,0,0,1.1.4,1.429,1.429,0,0,0,1.078-.4q.047-.07.187-.328l7.313-7.289a1.389,1.389,0,0,0,.422-1.019,1.41,1.41,0,0,0-.433-1.031Z" transform="translate(3 3)" fill="#00a85a"/>
</svg>
